<svg enable-background="new 0 0 470.6 134.5" viewBox="0 0 470.6 134.5" xmlns="http://www.w3.org/2000/svg"><path d="m403.4 134.5h67.2c0-74.3-60.2-134.5-134.4-134.5l-10.6 33.1 10.6 34.1c37.1 0 67.2 30.1 67.2 67.3z" fill="#a177ff"/><path d="m134.5 0-12 31.3 12 36c15.1 0 29.1 5.1 40.3 13.5l40.3-53.8c-22.5-16.9-50.3-27-80.6-27z" fill="#ffd200"/><path d="m235.3 45.7.1.1s0 0-.1-.1c-20.9 23.7-33.6 54.8-33.6 88.8h67.2c0-.1 0-.4 0-.5v.5c0-37.1 30.1-67.3 67.2-67.3v-67.2c-40.1 0-76.1 17.8-100.8 45.7z" fill="#fc636b"/><path d="m0 134.5h67.2c0-37.1 30.1-67.2 67.2-67.2v-67.3c-74.2 0-134.4 60.2-134.4 134.5z" fill="#ffb900"/></svg>